{"title":"Taarak Mehta Ka Ooltah Chashmah [10.03.11] 360p PDTV [rahultorre","uid":6235307,"size":59509646,"categoryP":"video","categoryS":"tv_shows","magnet":"?xt=urn:btih:5995186ebb1bd7317e702b1abb78db41b7c341f3&amp;dn=Taarak+Mehta+Ka+Ooltah+Chashmah+%5B10.03.11%5D+360p+PDTV+%5Brahultorre&amp;tr=udp%3A%2F%2Ftracker.openbittorrent.com%3A80&amp;tr=udp%3A%2F%2Fopen.demonii.com%3A1337&amp;tr=udp%3A%2F%2Ftracker.coppersurfer.tk%3A6969&amp;tr=udp%3A%2F%2Fexodus.desync.com%3A6969","seeders":1,"leechers":0,"uploader":"rahulro","files":-1,"time":1299804724,"description":"Show Summary:\nTaarak Mehta Ka Ooltah Chashmah is a sitcom that airs on SAB TV since 28 July 2008 which airs from Monday to Friday 8:30 pm IST. The show is produced by Neela Telefilms and the series writers are Raju Odedra and Rajen Upadhyay. It is based on the column Duniya Ne Undha Chasma written by Indian columnist and journalist Taarak Mehta. The serial is based in the Gokuldham Society. In August 2010, it beat Baalika Vadhu to become the most watched TV show in India.\n\nGeneral:\nFormat : Windows Media\nFile size : 56.8 MiB\nDuration : 21mn 16s\nOverall bit rate mode : Constant\nOverall bit rate : 373 Kbps\nMaximum Overall bit rate : 378 Kbps\nEncoded date : UTC 2011-03-11 11:19:34.187\nApplication : Windows Movie Maker 2.1.4026.0\n\nVideo\nID : 2\nFormat : VC-1\nFormat profile : MP@LL\nCodec ID : WMV3\nCodec ID/Info : Windows Media Video 9\nCodec ID/Hint : WMV3\nDescription of the codec : Windows Media Video 9\nDuration : 21mn 16s\nBit rate mode : Constant\nBit rate : 304 Kbps\nWidth : 320 pixels\nHeight : 240 pixels\nDisplay aspect ratio : 4:3\nFrame rate : 30.000 fps\nBit depth : 8 bits\nScan type : Progressive\nCompression mode : Lossy\nBits/(Pixel*Frame) : 0.132\nStream size : 46.3 MiB (82%)\nLanguage : English (US)\n\nAudio\nID : 1\nFormat : WMA\nFormat version : Version 2\nCodec ID : 161\nCodec ID/Info : Windows Media \n\nAudio\nDescription of the codec : Windows Media Audio 9.1 - 64 kbps, 44 kHz, stereo (A/V) 1-pass CBR\nDuration : 21mn 16s\nBit rate mode : Constant\nBit rate : 64.0 Kbps\nChannel(s) : 2 channels\nSampling rate : 44.1 KHz\nBit depth : 16 bits\nStream size : 9.75 MiB (17%)\nLanguage : Hindi","torrent":{"xt":"urn:btih:5995186ebb1bd7317e702b1abb78db41b7c341f3","amp;dn":"Taarak+Mehta+Ka+Ooltah+Chashmah+%5B10.03.11%5D+360p+PDTV+%5Brahultorre","amp;tr":["udp%3A%2F%2Ftracker.openbittorrent.com%3A80","udp%3A%2F%2Fopen.demonii.com%3A1337","udp%3A%2F%2Ftracker.coppersurfer.tk%3A6969","udp%3A%2F%2Fexodus.desync.com%3A6969"],"infoHash":"5995186ebb1bd7317e702b1abb78db41b7c341f3","infoHashBuffer":{"type":"Buffer","data":[89,149,24,110,187,27,215,49,126,112,43,26,187,120,219,65,183,195,65,243]},"announce":[],"urlList":[]}}